<svg xmlns="http://www.w3.org/2000/svg" xmlns:xlink="http://www.w3.org/1999/xlink" fill="none"
     viewBox="0 0 42 36">
    <defs>
        <path id="icon-tutorial" fill="currentColor"
              d="M5.99957 20.3596v5.62c0 1.46.8 2.82 2.08 3.52l10.00003 5.46c1.2.66 2.64.66 3.84 0l10-5.46c1.28-.7 2.08-2.06 2.08-3.52v-5.62l-12.08 6.6c-1.2.66-2.64.66-3.84 0l-12.08003-6.6ZM18.0796 1.03957 1.21957 10.2396c-1.38.76-1.38 2.76 0 3.52l16.86003 9.2c1.2.66 2.64.66 3.84 0l16.08-8.78v11.82c0 1.1.9 2 2 2s2-.9 2-2v-12.82c0-.74-.4-1.4-1.04-1.76l-19.04-10.38003c-1.2-.64-2.64-.64-3.84 0Z"/>
    </defs>
    <use xlink:href="#icon-tutorial"/>
</svg>
