<svg xmlns="http://www.w3.org/2000/svg" viewBox="0 0 16 16"><g fill="none"><path d="M8 1a.5.5 0 0 1 .5.5v1a.5.5 0 0 1-1 0v-1A.5.5 0 0 1 8 1zm0 10a3 3 0 1 0 0-6a3 3 0 0 0 0 6zm6.5-2.5a.5.5 0 0 0 0-1h-1a.5.5 0 0 0 0 1h1zM8 13a.5.5 0 0 1 .5.5v1a.5.5 0 0 1-1 0v-1A.5.5 0 0 1 8 13zM2.5 8.5a.5.5 0 0 0 0-1h-1a.5.5 0 0 0 0 1h1zm.646-5.354a.5.5 0 0 1 .708 0l1 1a.5.5 0 1 1-.708.708l-1-1a.5.5 0 0 1 0-.708zm.708 9.708a.5.5 0 1 1-.708-.707l1-1a.5.5 0 0 1 .708.707l-1 1zm9-9.708a.5.5 0 0 0-.708 0l-1 1a.5.5 0 0 0 .708.708l1-1a.5.5 0 0 0 0-.708zm-.708 9.708a.5.5 0 0 0 .708-.707l-1-1a.5.5 0 0 0-.708.707l1 1z" fill="currentColor"></path></g></svg>
