<svg xmlns="http://www.w3.org/2000/svg" fill="none" viewBox="0 0 700 215">
    <path fill="currentColor"
          d="M138.709 77.6534c-.011 1.859-1.722 3.1739-3.57 2.9794-4.584-.482-8.783-.4419-12.709-.0333-8.544.8896-15.646 3.5234-22.193 5.9515l-.014.0053c-.3962.147-.7903.2931-1.1826.4381-6.9517 2.5691-13.3573 4.7792-20.9572 4.9546-3.0317.07-6.2979-.1848-9.8945-.9078-3.0847-.6201-5.5492-2.9732-6.1604-6.0597-.4843-2.4457-.7383-4.9742-.7383-7.5621 0-21.3788 17.331-38.7097 38.7097-38.7097 21.3783 0 38.7093 17.3309 38.7093 38.7097v.234Z"/>
    <path fill="currentColor"
          d="M64.7341 96.8875c-2.9069-.6983-5.5596 2.4252-4.128 5.0495l37.9965 69.661c.6113 1.12 2.2204 1.12 2.8324 0l41.938-76.887c1.487-2.727.056-6.143-2.99-6.7516-6.627-1.324-12.273-1.4663-17.299-.9431-7.711.8027-14.115 3.175-20.763 5.6376-.352.1305-.705.2612-1.059.3919-6.9592 2.5721-14.2632 5.1503-23.0444 5.3529-4.1736.0963-8.6191-.3426-13.4835-1.5112Z"
          opacity=".7"/>
    <path fill="currentColor"
          d="M100 94.8557c0-.8079.505-1.5298 1.262-1.8099.354-.1307.707-.2614 1.059-.3919 6.648-2.4626 13.052-4.8349 20.763-5.6376 5.026-.5232 10.672-.3809 17.299.9431 3.046.6086 4.477 4.0246 2.99 6.7516l-41.938 76.887c-.31.566-.874.846-1.435.84V94.8557Z"/>
    <path fill="currentColor" fill-rule="evenodd"
          d="M222.848 68.5204C219.301 67.5068 216.007 67 212.712 67c-6.081 0-11.654 1.5204-16.722 4.0542-5.068 2.7872-8.868 6.5879-11.656 11.6556-2.787 5.0677-4.054 10.6421-4.054 17.23 0 6.5882 1.52 12.1622 4.308 17.2302 2.786 5.068 6.84 8.868 11.654 11.656 4.816 2.787 10.136 4.307 16.218 4.307 5.574 0 10.641-1.013 15.203-3.547 4.56-2.281 8.108-5.828 10.895-10.642 2.787-4.815 4.054-10.389 4.054-16.977v-2.7873c0-.3517.001-.7578.001-1.193v-.7902c.001-.444-.359-.8039-.803-.8039h-26.778c-.444 0-.803.3599-.803.8039v9.7945c0 .444.359.804.803.804h12.443c.328 0 .579.291.523.614-.253 1.446-.618 2.752-1.096 3.947-1.013 2.787-2.787 4.561-5.321 6.081-2.28 1.267-5.32 2.027-9.121 2.027-3.041 0-6.082-1.014-8.616-2.534-2.786-1.774-4.814-4.054-6.335-7.095-1.519-3.04-2.28-6.588-2.28-10.642 0-4.0539.761-7.6012 2.28-10.6418 1.521-3.0406 3.549-5.5745 6.335-7.0947 2.787-1.7737 5.829-2.5338 9.122-2.5338 3.041 0 6.081.7601 8.615 2.027 2.321 1.1603 4.43 3.171 6.13 5.6424.257.374.769.4804 1.144.2246l9.844-6.7119c.348-.2378.455-.7056.23-1.0622-1.745-2.7578-4.116-5.0782-6.706-6.9613-3.041-2.0271-5.827-3.5475-9.375-4.5609Zm81.156 2.0514 11.307-2.9781c.673-.1772 1.331.3303 1.331 1.0261v62.4382c0 .586-.475 1.062-1.061 1.062h-11.307c-.586 0-1.061-.476-1.061-1.062v-59.46c0-.482.325-.9034.791-1.0262ZM437.39 96.8992c1.774-1.0135 3.547-1.5203 5.575-1.5203 2.28 0 4.054.7601 5.574 1.5203 1.52.7601 2.787 2.2804 3.801 4.3078 1.013 2.027 1.52 4.307 1.52 7.094 0 2.788-.507 5.068-1.52 7.095-.76 2.027-2.027 3.548-3.801 4.561-1.52 1.014-3.547 1.52-5.574 1.52-2.028 0-4.055-.506-5.575-1.52-1.52-1.013-2.787-2.534-3.801-4.561-1.013-2.027-1.52-4.307-1.52-7.095 0-2.787.507-5.067 1.52-7.094.761-1.774 2.027-3.2943 3.801-4.3078Zm18.244-10.3887c-3.548-2.0271-7.855-3.0407-12.669-3.0407-4.561 0-8.869 1.0136-12.67 3.0407-3.8 2.027-6.588 5.0676-8.868 8.8684-2.281 3.8007-3.294 8.1081-3.294 12.9221 0 4.815 1.267 9.122 3.294 12.923s5.068 6.841 8.868 8.868c3.801 2.028 8.109 3.041 12.67 3.041 4.56 0 8.868-1.013 12.669-3.041 3.8-2.027 6.588-5.067 8.868-8.868 2.281-3.801 3.294-8.108 3.294-12.923 0-4.814-1.267-9.1214-3.294-12.9221-2.027-3.8008-5.068-6.8414-8.868-8.8684Zm-95.805 40.6125c.074-.124.29-.069.29.074v4.119c0 .444.36.804.804.804h11.821c.444 0 .804-.36.804-.804V85.7941c0-.4439-.36-.8039-.804-.8039h-11.821c-.444 0-.804.36-.804.8039v4.6144c0 .2639-.348.3731-.506.1616-.753-1.0098-1.602-1.9439-2.535-2.7927-2.787-2.7872-6.588-4.0541-11.149-4.0541-4.054 0-7.601 1.0136-10.896 3.2941-3.04 2.0271-5.574 5.0677-7.347 8.8685-1.774 3.8007-2.534 8.1081-2.534 12.6691s.76 8.868 2.534 12.669c1.773 3.801 4.054 6.588 7.347 8.869 3.042 2.28 6.842 3.293 10.896 3.293 4.815 0 8.362-1.52 11.402-3.547 1.258-.838 2.092-2.034 2.498-2.716Zm-4.778-7.419c-1.773 1.013-3.548 1.52-5.575 1.52-2.026 0-3.8-.507-5.574-1.52-1.52-1.014-2.787-2.534-3.801-4.561-.759-2.027-1.267-4.308-1.267-6.841 0-2.534.254-4.561 1.267-6.589 1.014-1.7731 2.281-3.2935 3.801-4.3069 1.774-1.0136 3.548-1.5202 5.574-1.5202 2.027 0 4.055.5066 5.575 1.5202 1.52 1.0134 2.787 2.2804 3.801 4.3069.76 1.774 1.267 4.055 1.267 6.589 0 2.533-.254 4.814-1.267 6.841-1.014 2.027-2.281 3.547-3.801 4.561Zm47.898-24.3251c-.148 0-.268.1199-.268.2679v18.2292c0 4.307 1.774 6.588 5.322 6.588h4.263c.444 0 .804.36.804.804v10.048c0 .444-.36.803-.804.803h-6.037c-5.321 0-9.629-1.52-12.416-4.561-3.041-3.04-4.561-7.348-4.561-12.922V95.6468c0-.148-.12-.2679-.268-.2679h-8.285c-.551 0-.939-.5415-.761-1.063l2.989-8.7811c.111-.3257.417-.5448.761-.5448h5.296c.148 0 .268-.1199.268-.2679V71.7534c0-.3652.246-.6844.599-.7774l12.158-3.2022c.34-.0895.672.1668.672.5183v16.43c0 .148.12.2679.268.2679h9.706c.551 0 .938.5416.761 1.063l-2.99 8.7811c-.111.3257-.417.5448-.761.5448h-6.716ZM272.405 83.4698c4.56 0 8.361 1.0136 11.655 3.0407 3.294 2.027 6.081 5.0676 7.855 8.8684 2.027 3.8007 2.787 8.1081 2.787 12.9221v2.491c0 .444-.36.803-.804.803h-30.525c-.325 0-.576.288-.523.608.223 1.349.547 2.532.939 3.447 1.014 2.027 2.281 3.547 3.801 4.307 1.52.76 3.548 1.52 6.082 1.52 2.28 0 4.56-.506 6.081-1.267 1.54-.66 2.89-1.894 4.048-3.369.286-.365.816-.438 1.176-.146l8.11 6.575c.336.273.398.762.128 1.1-2.191 2.736-4.836 4.813-8.142 6.229-3.547 1.52-7.348 2.281-11.401 2.281-4.816 0-9.122-1.014-12.923-3.041s-6.588-5.068-8.615-8.868c-2.028-3.801-3.041-8.109-3.041-12.923s1.013-9.1217 3.041-12.9224c2.027-3.8008 4.814-6.5881 8.361-8.8685 3.547-1.7737 7.348-2.7873 11.91-2.7873Zm-8.746 19.2572c-.338 0-.592-.309-.516-.639.446-1.915 1.109-3.4758 1.913-4.6821 1.52-2.2805 4.054-3.5473 7.349-3.5473 3.04 0 5.574 1.2668 7.094 3.5473.785 1.1781 1.435 2.7621 1.88 4.6821.077.329-.177.639-.516.639h-17.204Z"
          clip-rule="evenodd"/>
    <path fill="currentColor" fill-rule="evenodd"
          d="M222.579 68.5208C219.031 67.5069 215.736 67 212.441 67c-6.083 0-11.658 1.5208-16.727 4.0553-5.069 2.7878-8.87 6.5896-11.659 11.6585-2.788 5.069-4.055 10.6449-4.055 17.2345 0 6.5897 1.521 12.1657 4.309 17.2347 2.787 5.069 6.842 8.871 11.658 11.658 4.816 2.788 10.138 4.309 16.221 4.309 5.576 0 10.644-1.014 15.207-3.548 4.562-2.281 8.11-5.83 10.898-10.645 2.788-4.816 4.056-10.391 4.056-16.981v-4.5538c.001-.5645-.457-1.0221-1.021-1.0221H214.98c-.565 0-1.023.4576-1.023 1.0221v9.3608c0 .565.458 1.022 1.023 1.022h12.059c.416 0 .736.371.662.78-.252 1.381-.607 2.634-1.067 3.782-1.013 2.788-2.788 4.562-5.322 6.083-2.281 1.267-5.322 2.028-9.124 2.028-3.041 0-6.083-1.014-8.618-2.535-2.787-1.774-4.815-4.055-6.336-7.096-1.52-3.042-2.281-6.59-2.281-10.645 0-4.0555.761-7.6036 2.281-10.6451 1.521-3.0414 3.549-5.5758 6.336-7.0965 2.788-1.7741 5.83-2.5345 9.125-2.5345 3.041 0 6.082.7604 8.617 2.0276 2.263 1.1316 4.325 3.0716 6.003 5.459.332.4723.981.608 1.458.2828l9.493-6.4725c.443-.3022.58-.8974.288-1.348-1.734-2.6835-4.061-4.9475-6.597-6.792-3.042-2.0275-5.829-3.5483-9.378-4.562ZM526.65 133.173c-6.379 0-12.03-1.398-16.951-4.193-4.921-2.794-8.779-6.652-11.574-11.574-2.795-4.982-4.192-10.753-4.192-17.315 0-4.9213.79-9.3869 2.369-13.3968 1.641-4.0707 3.919-7.5641 6.835-10.4804 2.917-2.9771 6.349-5.2554 10.298-6.8351 4.01-1.5797 8.415-2.3695 13.215-2.3695 6.44 0 12.09 1.3974 16.951 4.1922 4.921 2.734 8.779 6.592 11.574 11.574s4.192 10.7539 4.192 17.3156c0 4.921-.79 9.417-2.369 13.488-1.58 4.01-3.828 7.503-6.744 10.48-2.917 2.917-6.38 5.164-10.39 6.744-4.01 1.58-8.414 2.37-13.214 2.37Zm0-12.941c2.612 0 4.982-.456 7.108-1.367 2.188-.912 4.071-2.218 5.651-3.919 1.579-1.762 2.794-3.889 3.645-6.38.911-2.491 1.367-5.316 1.367-8.475 0-4.1922-.759-7.7769-2.278-10.7539-1.519-3.0378-3.615-5.3465-6.289-6.9262-2.673-1.6404-5.741-2.4606-9.204-2.4606-2.613 0-5.012.4556-7.2 1.367-2.126.9113-3.979 2.248-5.559 4.0099-1.58 1.7012-2.825 3.7973-3.736 6.2883-.851 2.491-1.276 5.3161-1.276 8.4755 0 4.192.759 7.807 2.278 10.845 1.519 2.977 3.615 5.286 6.288 6.926 2.674 1.58 5.742 2.37 9.205 2.37Zm116.559 12.941c-3.402 0-6.531-.426-9.387-1.276-2.855-.912-5.285-2.218-7.29-3.919-1.738-1.575-3.063-3.441-3.976-5.598-.189-.447.001-.957.422-1.197l8.142-4.642c.483-.276 1.096-.099 1.387.374.596.972 1.247 1.834 1.953 2.587.912.972 2.096 1.732 3.554 2.279 1.459.486 3.19.729 5.195.729 2.43 0 4.344-.334 5.742-1.003 1.397-.668 2.096-1.579 2.096-2.734 0-1.215-.608-2.126-1.823-2.734-1.154-.668-3.068-1.306-5.741-1.914l-4.557-1.093c-5.468-1.398-9.448-3.281-11.939-5.65-2.491-2.37-3.736-5.499-3.736-9.3873 0-2.9163.79-5.4377 2.369-7.5641 1.58-2.1872 3.828-3.8884 6.744-5.1035 2.916-1.2152 6.349-1.8227 10.298-1.8227 3.646 0 6.775.486 9.387 1.4581 2.673.9114 4.921 2.248 6.744 4.0099 1.643 1.484 2.985 3.2222 4.027 5.2147.255.4861.035 1.0777-.463 1.3076l-8.864 4.0912c-.496.2289-1.08.0114-1.353-.4618-.873-1.5123-2.027-2.6786-3.463-3.4989-1.701-.9721-3.706-1.4581-6.015-1.4581-2.187 0-3.888.3341-5.103 1.0025-1.155.6683-1.732 1.5189-1.732 2.5517 0 .8506.304 1.5493.912 2.0961.668.4856 1.61.9416 2.825 1.3666 1.215.365 2.703.76 4.465 1.185l4.557 1.094c4.982 1.154 8.749 2.977 11.301 5.468 2.551 2.491 3.827 5.559 3.827 9.204 0 2.977-.85 5.62-2.551 7.929-1.702 2.248-4.101 4.01-7.2 5.286-3.038 1.215-6.622 1.823-10.754 1.823Zm-47.893 0c-3.706 0-6.775-.821-9.205-2.461-1.585-1.07-2.951-2.335-4.097-3.793-.204-.26-.642-.119-.642.212v19.881c0 .452-.304.846-.74.961l-11.41 3.007c-.63.166-1.247-.309-1.247-.961V85.6823c0-.5486.445-.9933.994-.9933h11.41c.548 0 .993.4447.993.9933v3.7002c0 .3329.442.473.647.2101 1.108-1.427 2.442-2.6666 4.001-3.719 2.43-1.6404 5.529-2.4604 9.296-2.4604 4.07 0 7.655 1.0935 10.753 3.2809 3.16 2.1869 5.651 5.1641 7.473 8.931 1.823 3.767 2.735 7.9899 2.735 12.6679 0 3.524-.517 6.804-1.55 9.842-1.033 2.977-2.491 5.59-4.374 7.838-1.884 2.248-4.101 4.01-6.653 5.286-2.552 1.275-5.346 1.914-8.384 1.914Zm-3.464-11.848c1.58 0 3.008-.273 4.284-.82 1.337-.547 2.46-1.367 3.372-2.461.972-1.154 1.701-2.521 2.187-4.101.547-1.64.82-3.493.82-5.559 0-4.192-1.002-7.412-3.007-9.6603-1.945-2.2479-4.496-3.372-7.656-3.372-1.579 0-3.037.3037-4.374.9116-1.276.5465-2.4 1.367-3.372 2.4604-.911 1.0935-1.64 2.4603-2.187 4.1013-.486 1.58-.729 3.433-.729 5.559 0 4.192.972 7.412 2.916 9.66 2.005 2.187 4.587 3.281 7.746 3.281ZM315.115 67.581l-11.389 2.9996c-.449.1182-.761.5241-.761.9884v59.545c0 .565.457 1.022 1.022 1.022h11.388c.565 0 1.022-.457 1.022-1.022V68.5694c0-.6702-.634-1.1591-1.282-.9884Zm122.061 29.3257c1.774-1.0138 3.549-1.5207 5.576-1.5207 2.281 0 4.055.7603 5.576 1.5207 1.521.7603 2.788 2.281 3.802 4.3083 1.013 2.028 1.52 4.309 1.52 7.097 0 2.788-.507 5.069-1.52 7.096-.761 2.028-2.028 3.549-3.802 4.562-1.521 1.014-3.548 1.521-5.576 1.521-2.027 0-4.055-.507-5.576-1.521-1.52-1.013-2.788-2.534-3.801-4.562-1.014-2.027-1.521-4.308-1.521-7.096 0-2.788.507-5.069 1.521-7.097.76-1.7739 2.027-3.2945 3.801-4.3083Zm18.248-10.3914c-3.548-2.0276-7.856-3.0414-12.672-3.0414-4.562 0-8.871 1.0138-12.672 3.0414-3.802 2.0276-6.59 5.069-8.871 8.8707-2.281 3.8017-3.295 8.11-3.295 12.926 0 4.815 1.267 9.124 3.295 12.926 2.028 3.801 5.069 6.843 8.871 8.87 3.801 2.028 8.11 3.042 12.672 3.042 4.562 0 8.871-1.014 12.672-3.042 3.802-2.027 6.59-5.069 8.871-8.87 2.281-3.802 3.295-8.111 3.295-12.926 0-4.816-1.267-9.1243-3.295-12.926-2.027-3.8017-5.069-6.8431-8.871-8.8707ZM359.51 127.279c.096-.155.375-.084.375.099v3.736c0 .565.458 1.022 1.022 1.022h11.388c.565 0 1.022-.457 1.022-1.022V86.0171c0-.5644-.457-1.0221-1.022-1.0221h-11.388c-.564 0-1.022.4577-1.022 1.0221v4.1613c0 .3355-.444.4759-.648.2094-.718-.938-1.518-1.809-2.394-2.6049-2.787-2.7879-6.589-4.0551-11.151-4.0551-4.055 0-7.604 1.0139-10.899 3.295-3.041 2.0275-5.575 5.0689-7.349 8.8706-1.774 3.8018-2.535 8.1106-2.535 12.6726 0 4.562.761 8.871 2.535 12.672 1.774 3.802 4.055 6.59 7.349 8.871 3.042 2.281 6.844 3.295 10.899 3.295 4.816 0 8.364-1.521 11.405-3.549 1.175-.783 1.98-1.878 2.413-2.576Zm-4.694-7.562c-1.774 1.014-3.549 1.521-5.576 1.521-2.027 0-3.801-.507-5.576-1.521-1.52-1.013-2.788-2.534-3.802-4.562-.76-2.027-1.267-4.308-1.267-6.843 0-2.534.254-4.562 1.267-6.589 1.014-1.7745 2.282-3.2952 3.802-4.3089 1.775-1.0139 3.549-1.5207 5.576-1.5207 2.027 0 4.055.5068 5.576 1.5207 1.52 1.0137 2.788 2.2809 3.802 4.3089.76 1.774 1.267 4.055 1.267 6.589 0 2.535-.254 4.816-1.267 6.843-1.014 2.028-2.282 3.549-3.802 4.562Zm47.983-24.3307c-.188 0-.341.1525-.341.3407v18.161c0 4.308 1.774 6.59 5.323 6.59h4.047c.564 0 1.022.457 1.022 1.022v9.614c0 .565-.458 1.022-1.022 1.022h-5.821c-5.323 0-9.631-1.52-12.42-4.562-3.041-3.041-4.562-7.35-4.562-12.926V95.727c0-.1882-.152-.3407-.34-.3407h-7.91c-.701 0-1.194-.6885-.968-1.3515l2.842-8.3473c.141-.4142.53-.6927.968-.6927h5.068c.188 0 .34-.1525.34-.3407V71.9228c0-.4642.313-.8702.762-.9884l11.816-3.1122c.432-.1138.855.2121.855.659v16.1729c0 .1882.153.3407.341.3407h9.331c.7 0 1.193.6885.967 1.3516l-2.842 8.3472c-.141.4142-.53.6927-.967.6927h-6.489Zm-130.65-11.9124c4.561 0 8.363 1.0138 11.658 3.0414 3.295 2.0276 6.082 5.069 7.856 8.8707 2.028 3.8017 2.789 8.11 2.789 12.926v2.273c0 .564-.458 1.022-1.022 1.022h-30.149c-.413 0-.732.365-.662.772.222 1.281.536 2.406.911 3.283 1.015 2.027 2.282 3.548 3.802 4.308 1.521.761 3.549 1.521 6.084 1.521 2.281 0 4.561-.507 6.082-1.267 1.478-.633 2.78-1.794 3.906-3.19.369-.458 1.042-.552 1.5-.181l7.77 6.299c.426.346.505.97.158 1.396-2.165 2.656-4.771 4.679-8.012 6.067-3.548 1.521-7.35 2.281-11.404 2.281-4.817 0-9.124-1.013-12.926-3.041-3.802-2.028-6.59-5.069-8.617-8.871-2.029-3.802-3.042-8.11-3.042-12.926 0-4.815 1.013-9.1237 3.042-12.9254 2.027-3.8017 4.815-6.5897 8.363-8.8707 3.548-1.7742 7.35-2.788 11.913-2.788Zm-8.571 19.2621c-.43 0-.753-.393-.652-.811.445-1.837 1.092-3.3412 1.872-4.5115 1.521-2.2811 4.055-3.5481 7.351-3.5481 3.04 0 5.575 1.267 7.096 3.5481.762 1.143 1.396 2.6675 1.84 4.5105.1.418-.223.812-.653.812h-16.854Z"
          clip-rule="evenodd"/>
    <defs>
        <linearGradient id="b" x1="102.085" x2="102.085" y1="88.7754" y2="172.438" gradientUnits="userSpaceOnUse">
            <stop stop-color="#fff"/>
            <stop offset="1" stop-color="#fff" stop-opacity=".5"/>
        </linearGradient>
        <linearGradient id="c" x1="121.982" x2="121.982" y1="86.7336" y2="208.163" gradientUnits="userSpaceOnUse">
            <stop stop-color="#fff"/>
            <stop offset="1" stop-color="#fff" stop-opacity="0"/>
        </linearGradient>
        <radialGradient id="a" cx="0" cy="0" r="1"
                        gradientTransform="matrix(-144.8981 32.6542 -39.12493 -173.611 123.469 50)"
                        gradientUnits="userSpaceOnUse">
            <stop stop-color="#fff"/>
            <stop offset=".116813" stop-color="#fff" stop-opacity=".95"/>
            <stop offset="1" stop-color="var(--logo-color)" stop-opacity="0"/>
        </radialGradient>
    </defs>w
</svg>
