<svg width="20" height="32" viewBox="0 0 20 32" fill="currentColor" xmlns="http://www.w3.org/2000/svg">
    <path d="M15.247 12.2419C15.2454 12.4921 15.0003 12.6691 14.7355 12.6429C14.0788 12.578 13.4772 12.5834 12.9147 12.6384C11.6906 12.7582 10.6731 13.1127 9.73517 13.4395L9.73316 13.4402C9.6764 13.46 9.61994 13.4797 9.56373 13.4992C8.56777 13.845 7.65005 14.1425 6.56123 14.1661C6.12688 14.1755 5.65894 14.1412 5.14366 14.0439C4.70172 13.9604 4.34863 13.6437 4.26107 13.2282C4.19168 12.899 4.15529 12.5587 4.15529 12.2104C4.15529 9.33276 6.63828 7 9.70117 7C12.764 7 15.247 9.33276 15.247 12.2104V12.2419ZM4.64872 14.8308C4.23226 14.7368 3.85221 15.1572 4.05731 15.5105L9.50101 24.8869C9.58859 25.0377 9.81912 25.0377 9.9068 24.8869L15.9152 14.5378C16.1282 14.1708 15.9232 13.711 15.4868 13.6291C14.5374 13.4509 13.7285 13.4317 13.0084 13.5021C11.9037 13.6102 10.9862 13.9295 10.0337 14.261C9.98331 14.2785 9.93273 14.2961 9.88202 14.3137C8.88498 14.6599 7.83855 15.0069 6.58048 15.0342C5.98254 15.0472 5.34564 14.9881 4.64872 14.8308Z"/>
</svg>
