<svg xmlns="http://www.w3.org/2000/svg" fill="none" viewBox="0 0 126 36">
    <path fill="currentColor" fill-rule="evenodd" d="m35.0834 19.3177.0004-1.7561v-.9912l-.0008-1.0253-.0016-.6574-.0024-.525-.0034-.45-.0042-.4002-.0051-.3638-.006-.3359-.0069-.3134-.0077-.2948-.0086-.2792-.0095-.2658-.0104-.2539-.0112-.2437-.0122-.2343-.013-.2261-.0139-.2185-.0148-.2116-.0157-.2053-.0165-.19944-.0175-.19403-.0183-.18899-.0192-.18427-.0201-.17984-.021-.17568-.0219-.17175-.0228-.16802-.0236-.16449-.0246-.16113-.0255-.15792-.0263-.15485-.0273-.15193-.0281-.14912-.0291-.14641-.0299-.14381-.0309-.14131-.0318-.13889-.0327-.13656-.0336-.1343-.0345-.1321-.0354-.12999-.0363-.12792-.0373-.12592-.0382-.12397-.0391-.12207-.04-.12021-.041-.11842-.0419-.11665-.0428-.11492-.0438-.11324-.0447-.11159-.0457-.10997-.0466-.10839-.0475-.10683-.0486-.10531-.0494-.10382-.0505-.10234-.0514-.10089-.0524-.09948-.0533-.09807-.0544-.09669-.0553-.09534-.0563-.09399-.0573-.09268-.0583-.09137-.0593-.09009-.0603-.08882-.0614-.08757-.0623-.08632-.0634-.08511-.0644-.08389-.0655-.0827-.0665-.08151-.0676-.08033-.0686-.07918-.0697-.07803-.0708-.07688-.0718-.07576-.073-.07464-.0741-.07353-.0751-.07243-.0763-.07134-.0775-.07025-.0785-.06918-.0798-.06811-.0809-.06705-.0821-.066-.0832-.06496-.0845-.06391-.0857-.06289-.0869-.06185-.0882-.06084-.0894-.05982-.0907-.05882-.092-.05781-.0933-.05681-.0946-.05582-.096-.05483-.0974-.05385-.0987-.05287-.1001-.0519-.1016-.05092-.1031-.04996-.1045-.049-.106-.04804-.1076-.04708-.1092-.04613-.1107-.04519-.1124-.04424-.114-.0433-.1158-.04236-.1175-.041425-.1192-.040492-.1212-.039563-.1229-.038636-.1249-.037711-.1269-.036789-.129-.035869-.131-.034952-.1331-.034036-.1354-.033123-.1377-.032212-.1401-.031303-.1425-.030395-.1451-.02949-.1478-.028587-.1505-.027684-.1533-.026783-.1564-.025885-.1595-.024987-.1628-.024091-.1663-.023197-.1698-.022303-.1738-.02141-.1777-.02052-.1821-.01963-.1867-.018741-.1915-.017853-.1968-.016966-.2024-.01608-.2085-.015195-.2151-.01431-.2224-.013427-.2303-.0125439-.2392-.0116615-.2489-.0107799-.2601-.0098987-.2727-.009018-.2873-.0081379-.3044-.007258-.325-.0063787-.3502-.0054996-.3824-.00462071-.4253-.00374216-.4869-.00286377-.5868-.00198552-.7975-.00110737L16.6845 0l-1.0951.00064882-.6722.00152693-.532.00240513-.4544.00328345-.4031.00416197-.366.0050406-.3374.0059195-.3147.0067988-.2959.0076784-.28.0085583-.2664.0094388-.2546.0103196-.2442.0112011-.2348.012083-.2264.0129656-.2188.013849-.2119.014733-.2056.015618-.19964.016503-.19423.01739L9.48797.1984l-.18443.019165-.17999.020055-.1758.020945-.17186.021837-.16812.02273-.16458.023624-.16121.024519-.15799.025416-.15493.026314-.15198.027213-.14917.028115-.14646.029018-.14385.029922-.14135.030829-.13892.031737-.13659.032647-.13432.033559-.13213.034474-.13001.03539-.12794.036308-.12593.037229-.12399.038153-.12208.039078-.12023.040007-.11842.040938-.11665.041871-.11493.042807-.11325.04375-.11159.04469-.10998.04564-.10839.04659-.10684.04754-.10531.04849-.10381.04946-.10235.05042-.10089.05139-.09948.05236-.09807.05333-.09669.05432-.09534.05531-.09399.05629-.09268.05729-.09138.05829-.09008.0593-.08882.0603-.08757.06133-.08633.06234-.0851.06338-.0839.06441-.0827.06545-.08151.0665-.08034.06756-.07918.06862-.07803.06969-.07689.07077-.07576.07186-.07465.07295-.07353.07406-.07244.07517-.07134.0763-.07026.07743-.06919.07858-.06812.07973-.06706.08089-.06601.08208-.06496.08326-.06393.08447-.06289.08569-.06187.08692-.06085.08816-.05983.08942-.05883.0907-.05783.092-.05683.0933-.05583.09464-.05485.09598-.05387.09735-.05289.09874-.05191.10015-.05095.10158-.04998.10304-.04902.10453-.04806.10603-.0471.10757-.04616.10915-.04521.11074-.04427.11237-.04332.11404-.042389.11574-.041453.11749-.040521.11927-.039592.12109-.038666.12297-.037742.1249-.036821.12687-.035902.1289-.034985.13099-.034071.13314-.033159.13537-.032248.13766-.03134.14004-.030433.14249-.029529.14505-.028626.14769-.027725.15044-.026825.15331-.025927.15631-.025031.15943-.024135.16271-.023242.16616-.022348.16977-.021458.1736-.020568.17764-.019678.18193-.018791.18648-.017903.19136-.017018.19657-.016132.20214-.015248.2083-.014365.2148-.0134819.222-.0126.23-.0117186.2386-.0108379.2484-.0099576.2594-.009078.272-.0081987.2863-.0073199.3033-.0064414.3236-.0055633.3484-.0046855.3799-.0038078.4218-.00293043.4816-.00205314.5771-.00117597.7724L0 18.2624l.00057824 1.19.00145537.6897.00233257.5407.00320989.4598.00408733.4071.0049651.3689.005843.3399.0067212.3167.0075998.2976.0084787.2815.0093581.2678.010238.2557.0111183.2452.0119993.2358.0128811.2273.013763.2197.014646.2126.01553.2063.016414.2003.0173.1949.018186.1898.019073.185.019961.1805.020851.1763.021742.1724.022633.1686.023526.165.02442.1617.025316.1584.026213.1553.027112.1524.028011.1496.028913.1468.029817.1442.030722.1417.031629.1393.032538.1369.033449.1347.034362.1324.035277.1304.036194.1282.037115.1262.038036.1243.03896.1224.039888.1205.040818.1187.04175.1169.042689.1152.04362.1135.04457.1119.04551.1102.04646.1086.04741.1071.04836.1056.04933.104.05028.1026.05126.1011.05222.0997.0532.0983.05418.0969.05516.0956.05616.0942.05714.0929.05815.0915.05914.0903.06016.089.06118.0878.06219.0865.06322.0853.06426.0841.06529.0829.06635.0817.06739.0805.06846.0794.06953.0782.07061.0771.07169.0759.07278.0748.07389.0737.075.0726.07612.0715.07725.0705.0784.0693.07955.0683.08071.0672.08189.0662.08307.0651.08428.0641.08549.063.08673.062.08796.061.08922.06.0905.059.09179.058.09309.0569.09442.056.09577.055.09713.054.09852.053.09992.0521.10135.0511.10281.0501.10429.0491.1058.0482.10733.0473.10889.0462.11049.0454.11211.0444.11378.0434.11548.0425.11721.0416.11899.0407.12082.0397.12268.0387.1246.0379.12656.0369.1286.0361.13067.0351.13282.0341.13504.0333.13732.0324.13969.0314.14213.0305.14468.0297.14731.0287.15005.0278.15291.027.15588.026.159.0251.16227.0243.16569.0233.16929.0224.17309.0216.17711.0207.18137.0197.1859.0189.19074.018.19592.0171.20145.0162.2076.0154.214.0144.2212.0136.229.0127.2376.0118.2474.0109.2582.01.2705.0092.2848.0083.3015.0074.3215.0065.3458.0056.3766.0048.4176.0039.4753.003.5667.0021.7479.0012 2.1779.0004 1.3277-.0005.7069-.0014.5486-.0022.4644-.0032.4101-.004.3713-.0049.3415-.0058.318-.0067.2987-.0075.2824-.0084.2684-.0093.2564-.0102.2457-.0111.2362-.0119.2277-.0128.22-.0137.213-.0146.2065-.0155.2006-.0164.1951-.0172.1899-.0181.1852-.0191.1807-.0199.1764-.0208.1725-.0217.1687-.0226.1651-.0234.1618-.0244.1584-.0253.1554-.0262.1525-.027.1496-.028.1469-.0289.1442-.0298.1418-.0306.1393-.0316.1369-.0325.1347-.0334.1325-.0344.1303-.0352.1283-.0362.1263-.0371.1242-.038.1224-.0389.1205-.0399.1188-.0407.1169-.0418.1152-.0426.1135-.0436.1119-.0446.1102-.0455.1086-.0464.1071-.0474.1056-.0483.104-.0493.1026-.0503.1011-.0512.0997-.0522.0983-.0532.0969-.0542.0956-.0551.0942-.0562.0929-.0571.0915-.0581.0903-.0592.0891-.0601.0877-.0612.0865-.0621.0853-.0633.0841-.0642.0829-.0653.0817-.0663.0805-.0674.0794-.0685.0782-.0695.0771-.0706.0759-.0717.0749-.0727.0737-.0739.0726-.075.0715-.0761.0704-.0773.0694-.0784.0683-.0795.0672-.0807.0662-.0819.0651-.0831.0641-.0843.0631-.0855.062-.0867.061-.0879.06-.0893.059-.0905.058-.0917.057-.0931.056-.0945.055-.0957.054-.0972.053-.0985.0521-.0999.0511-.1014.0501-.1028.0492-.1042.0482-.1058.0473-.1074.0463-.1089.0453-.1104.0445-.1122.0434-.1137.0426-.1155.0416-.1172.0406-.119.0398-.1208.0388-.1227.0379-.1245.0369-.1266.0361-.1286.0351-.1306.0342-.1328.0333-.135.0324-.1373.0315-.1397.0306-.1421.0297-.1446.0287-.1473.0279-.15.027-.1528.026-.1558.0252-.1589.0243-.1622.0234-.1656.0225-.1692.0216-.173.0207-.177.0198-.1812.0189-.1857.0181-.1906.0171-.1957.0163-.2013.0154-.2072.0145-.2137.0136-.2209.0128-.2286.0118-.2372.011-.2468.0101-.2575.0092-.2699.0084-.2839.0074-.3004.0066-.32.0057-.3441.0048-.3743.004-.4142.003-.4704.0022-.558.0014-.7274Zm-13.261-1.7758-5.3162 1.4177-9.05308 3.3852 1.5145 3.9681L27.1179 19.526c.8338-.3118 1.3855-1.1019 1.3855-1.9841 0-.8822-.5517-1.6722-1.3855-1.984L8.96762 8.771l-1.5145 3.9681 9.05308 3.3852 5.3162 1.4176Z" clip-rule="evenodd"/>
    <path fill="currentColor" d="M47.0859 17.6062c0-1.3682.255-2.6684.7649-3.9006.5183-1.2322 1.2194-2.2987 2.1032-3.1995.8923-.90075 1.963-1.61458 3.2122-2.14146 1.2577-.53537 2.5919-.80306 4.0026-.80306 1.4192 0 2.7533.26344 4.0025.79032 1.2492.52687 2.3412 1.26195 3.276 2.2052l-2.0522 2.3582c-.6629-.7648-1.4447-1.3257-2.3455-1.6826-.9008-.3569-1.8186-.5354-2.7533-.5354-1.2917 0-2.4602.3187-3.5055.9561-1.0452.6288-1.8568 1.4701-2.4346 2.5239-.5779 1.0452-.8668 2.1882-.8668 3.4289 0 1.912.6543 3.5267 1.963 4.8438 1.3087 1.3172 2.9488 1.9758 4.9203 1.9758 1.4872 0 2.7024-.4164 3.6457-1.2492.9518-.8328 1.5041-2.1032 1.6571-3.8113h-6.0803v-3.2887h9.471v2.2179c0 1.2577-.187 2.439-.5609 3.5437-.3654 1.1047-.905 2.0862-1.6189 2.9445-.7053.8583-1.6188 1.5382-2.7406 2.0396-1.1217.4928-2.3879.7393-3.7986.7393-1.4276 0-2.7788-.255-4.0535-.7648-1.2662-.5184-2.3539-1.2195-3.2632-2.1033-.9008-.8838-1.6189-1.9418-2.1543-3.174-.5268-1.2322-.7903-2.5366-.7903-3.9133Zm20.6824 3.5309c0-.8753.1487-1.7081.4462-2.4984.3059-.7988.7308-1.4956 1.2747-2.0905.5438-.6034 1.2194-1.0792 2.0267-1.4277.8158-.3569 1.7039-.5353 2.6641-.5353 1.1898 0 2.2647.2974 3.225.8923.9603.5948 1.7039 1.3851 2.2307 2.3709.5269.9773.7904 2.048.7904 3.2122 0 .3654-.0255.7054-.0765 1.0198h-9.4583c.187.7818.5821 1.4064 1.1855 1.8738.6118.4674 1.3682.7011 2.2689.7011.5949 0 1.1643-.1147 1.7081-.3442.5439-.2294.9901-.5736 1.3385-1.0325l2.1925 1.7463c-.5609.7903-1.3045 1.4107-2.2308 1.8611-.9262.4504-1.9205.6756-2.9828.6756-1.2237 0-2.3411-.2804-3.3524-.8413-1.0113-.5609-1.8058-1.3342-2.3837-2.32-.5779-.9857-.8668-2.0735-.8668-3.2632Zm3.2377-1.4149h6.1823c-.0935-.6289-.4291-1.1557-1.007-1.5806-.5779-.4249-1.2534-.6374-2.0268-.6374-.7393 0-1.3894.204-1.9502.6119-.5609.3994-.9603.9348-1.1983 1.6061Zm11.3644 4.181V7.89301h3.2122V23.1766c0 .4589.0935.7988.2805 1.0198.1869.2209.5438.3314 1.0707.3314.2124 0 .3782-.0085.4971-.0255v2.8426c-.5268.1445-.99.2167-1.3894.2167-1.1812 0-2.0905-.3144-2.7278-.9433-.6289-.6373-.9433-1.5424-.9433-2.7151Zm5.4242-2.8426c0-1.8015.6374-3.3312 1.9121-4.5889 1.2832-1.2577 2.8383-1.8865 4.6654-1.8865 1.3257 0 2.4729.3824 3.4417 1.1472v-.9178h3.2122v12.4028h-3.2122v-.803c-.9433.7648-2.0906 1.1472-3.4417 1.1472-1.1982 0-2.303-.2889-3.3142-.8668-1.0113-.5864-1.8101-1.3767-2.3965-2.3709-.5778-1.0028-.8668-2.0905-.8668-3.2633Zm3.1485 0c0 .9263.3357 1.7294 1.007 2.4092.6799.6713 1.4872 1.007 2.422 1.007.9517 0 1.7633-.3357 2.4346-1.007.6714-.6798 1.0071-1.4829 1.0071-2.4092 0-.9178-.3357-1.7123-1.0071-2.3837-.6713-.6798-1.4829-1.0197-2.4346-1.0197-.9348 0-1.7421.3399-2.422 1.0197-.6713.6714-1.007 1.4659-1.007 2.3837Zm11.6449-3.1612v-3.0848h1.963v-4.2065h3.199v4.2065h3.302v3.0848h-3.302v4.9586c0 1.1132.464 1.6698 1.39 1.6698.238 0 .484-.0085.739-.0255.264-.0255.468-.0467.612-.0637l.217-.0383v2.8426c-.629.2125-1.458.3187-2.486.3187-1.181 0-2.09-.3612-2.728-1.0835-.629-.7223-.943-1.7039-.943-2.9446v-5.6341h-1.963Zm9.337 3.1612c0-1.8015.638-3.3312 1.913-4.5889 1.283-1.2577 2.838-1.8865 4.665-1.8865 1.207 0 2.316.2889 3.327.8668 1.02.5693 1.818 1.3511 2.396 2.3454.587.9943.88 2.082.88 3.2632 0 1.1728-.293 2.2605-.88 3.2633-.578.9942-1.376 1.7845-2.396 2.3709-1.011.5779-2.12.8668-3.327.8668-1.198 0-2.303-.2889-3.314-.8668-1.012-.5864-1.81-1.3767-2.397-2.3709-.578-1.0028-.867-2.0905-.867-3.2633Zm3.149 0c0 .9263.336 1.7294 1.007 2.4092.68.6713 1.487 1.007 2.422 1.007.952 0 1.763-.3357 2.435-1.007.671-.6798 1.007-1.4829 1.007-2.4092 0-.9178-.336-1.7123-1.007-2.3837-.672-.6798-1.483-1.0197-2.435-1.0197-.935 0-1.742.3399-2.422 1.0197-.671.6714-1.007 1.4659-1.007 2.3837Z"/>
</svg>
