<svg viewBox="0 0 32 32" fill="fillCurrent" xmlns="http://www.w3.org/2000/svg">
    <path d="M22.5636 7.3171C22.1682 7.55081 21.7862 7.77603 21.4036 7.99966L21.2691 8.07854C20.9167 8.28524 20.5645 8.49183 20.209 8.69257C20.1821 8.70527 20.1528 8.71199 20.1231 8.71226C20.0934 8.71254 20.064 8.70636 20.0369 8.69416C19.5281 8.40204 19.0221 8.10497 18.5161 7.80795L18.242 7.64711C17.6114 7.27696 16.9808 6.90645 16.3504 6.53559C16.2563 6.47522 16.1586 6.42091 16.0577 6.37297C16.0328 6.36441 16.0063 6.36103 15.9801 6.36303C15.9538 6.36504 15.9282 6.37239 15.9048 6.38465C15.5262 6.60432 15.1488 6.82603 14.7715 7.04775C14.5109 7.20084 14.2502 7.35407 13.9892 7.50651C13.7202 7.66397 13.4507 7.82018 13.1813 7.97636C12.7699 8.21486 12.3585 8.45333 11.9494 8.69602C11.8718 8.74191 11.8218 8.72865 11.7609 8.69284C11.2494 8.39219 10.7381 8.09057 10.227 7.78797L9.42708 7.31524L9.47542 7.28655C9.62487 7.19782 9.76209 7.11636 9.89953 7.03511C10.585 6.63118 11.2705 6.22733 11.9559 5.82358C12.2381 5.65892 12.5205 5.49542 12.8028 5.33199C13.1389 5.13739 13.475 4.94277 13.8102 4.74655C14.1764 4.53249 14.5419 4.31693 14.9074 4.10136C15.1163 3.97819 15.3251 3.85501 15.5341 3.73212C15.5661 3.71358 15.598 3.69463 15.6299 3.67566C15.7239 3.61973 15.8182 3.56367 15.9164 3.51751C15.9426 3.50596 15.9709 3.5 15.9996 3.5C16.0282 3.5 16.0565 3.50596 16.0828 3.51751C16.4482 3.72933 16.8118 3.94468 17.1756 4.16006C17.419 4.3042 17.6626 4.44849 17.9066 4.59163C18.232 4.78301 18.5586 4.97164 18.8853 5.16028C19.14 5.30736 19.3947 5.45445 19.6488 5.60287C19.9395 5.77277 20.229 5.94414 20.5185 6.11547L20.5192 6.11585C20.7809 6.27075 21.0426 6.42562 21.305 6.57936C21.577 6.73859 21.8501 6.89566 22.1232 7.05275C22.2564 7.12936 22.3897 7.20601 22.5228 7.28288C22.537 7.29356 22.5506 7.30499 22.5636 7.3171Z"
          fill="currentColor"></path>
    <path d="M22.5579 13.9028C22.5581 13.7883 22.5583 13.6737 22.5583 13.5592C22.5583 13.4015 22.5581 13.2438 22.5579 13.0861V13.085C22.5576 12.8015 22.5573 12.5179 22.558 12.2342C22.5585 12.162 22.5438 12.1158 22.4742 12.0768C22.3207 11.9909 22.1695 11.9005 22.0185 11.8102C21.9332 11.7591 21.848 11.7081 21.7623 11.658C21.6014 11.5636 21.4401 11.4702 21.2787 11.3769C20.9411 11.1815 20.6036 10.9861 20.2709 10.7826C20.1618 10.7157 20.0848 10.7221 19.9888 10.7786C19.5585 11.0331 19.1279 11.2862 18.6969 11.5381C18.495 11.656 18.2924 11.773 18.0897 11.89L18.089 11.8904C17.8821 12.0098 17.6752 12.1293 17.4689 12.2498C17.3059 12.3448 17.1433 12.4404 16.9806 12.5359C16.6796 12.7127 16.3786 12.8895 16.0758 13.0629C16.0507 13.0736 16.0235 13.0787 15.9963 13.078C15.969 13.0772 15.9422 13.0706 15.9176 13.0586C15.5464 12.8501 15.1781 12.6366 14.8103 12.422C14.571 12.2828 14.3325 12.1424 14.0939 12.002C13.8653 11.8676 13.6366 11.733 13.4075 11.5996C13.2508 11.5084 13.0936 11.4182 12.9364 11.328C12.6235 11.1485 12.3106 10.9689 12.0023 10.7818C11.8989 10.7192 11.8251 10.7186 11.7318 10.7738C11.4985 10.9115 11.265 11.0491 11.0316 11.1866C10.5309 11.4816 10.0302 11.7766 9.53086 12.0737C9.49079 12.0973 9.44808 12.158 9.44808 12.2018C9.44439 13.1027 9.44395 14.0034 9.44676 14.9039C9.44854 14.9235 9.45453 14.9425 9.46432 14.9595C9.4741 14.9766 9.48745 14.9913 9.50344 15.0026C10.081 15.3446 10.6598 15.6842 11.2398 16.0213L11.4358 16.1351C12.0738 16.5057 12.7115 16.8762 13.3532 17.241C13.5198 17.3352 13.5873 17.44 13.5854 17.6458C13.5761 18.7842 13.5771 19.9225 13.578 21.061C13.5783 21.406 13.5786 21.7514 13.5786 22.0964C13.5786 22.163 13.5812 22.2094 13.6553 22.2524C14.1353 22.5316 14.6134 22.814 15.0915 23.0964L15.093 23.0973C15.3736 23.263 15.6548 23.4291 15.9358 23.5942C15.9512 23.6027 15.9682 23.6077 15.9857 23.6089C16.0031 23.6102 16.0207 23.6076 16.0371 23.6014C16.3105 23.4472 16.5815 23.2881 16.852 23.1289C16.9975 23.0432 17.1428 22.9571 17.2881 22.8711L17.289 22.8706C17.6357 22.6653 17.9825 22.4599 18.3315 22.259C18.4033 22.2169 18.4259 22.1795 18.4259 22.0999C18.4247 21.0579 18.4241 20.0158 18.4241 18.9738L18.424 18.6619C18.4237 18.2669 18.4235 17.8719 18.4265 17.4769C18.427 17.4331 18.4489 17.3686 18.4816 17.349C18.8649 17.1195 19.2517 16.893 19.6387 16.6686C19.8252 16.5605 20.0122 16.4533 20.1992 16.3461C20.4415 16.2073 20.6839 16.0683 20.925 15.9276C21.1231 15.8118 21.3205 15.695 21.518 15.5781L21.5191 15.5774C21.8323 15.3922 22.1454 15.2069 22.4607 15.0257C22.5369 14.9822 22.5601 14.9416 22.5601 14.8572C22.557 14.5391 22.5575 14.2209 22.5579 13.9028Z"
          fill="currentColor"></path>
    <path d="M15.706 28.3117L15.7071 28.3123C15.7963 28.3667 15.8855 28.4211 15.9748 28.4753L16.0275 28.4726C16.0482 28.4525 16.0704 28.4341 16.094 28.4175C16.3933 28.2406 16.6931 28.0638 16.9933 27.8869L17.2267 27.7498C17.5861 27.5385 17.9456 27.3272 18.3075 27.12C18.3945 27.0701 18.4262 27.0139 18.4262 26.9128C18.4231 26.2468 18.4234 25.581 18.4236 24.9152L18.4238 24.208C18.412 24.2096 18.4014 24.2102 18.3918 24.2107C18.3742 24.2117 18.3602 24.2125 18.3495 24.2189C18.1894 24.3125 18.0291 24.406 17.8689 24.4994L17.8669 24.5005L17.865 24.5016C17.2911 24.8362 16.7172 25.1707 16.1496 25.5156C16.0175 25.596 15.9358 25.575 15.8253 25.5039C15.6983 25.4222 15.5675 25.3462 15.4367 25.2703L15.436 25.2698C15.3922 25.2444 15.3482 25.2189 15.3046 25.1933C14.9083 24.9598 14.5114 24.7272 14.114 24.4953C13.9977 24.4275 13.8804 24.3612 13.7578 24.2917C13.6996 24.2588 13.6399 24.225 13.5788 24.1902L13.5788 24.4518C13.5788 25.318 13.5788 26.1601 13.5809 27.0022C13.5828 27.0177 13.588 27.0327 13.5963 27.0459C13.6045 27.0592 13.6156 27.0704 13.6287 27.0789C13.871 27.2225 14.1138 27.3651 14.3567 27.5077C14.5996 27.6503 14.8425 27.7929 15.0848 27.9365C15.2924 28.0594 15.4983 28.185 15.7043 28.3107L15.706 28.3117Z"
          fill="currentColor"></path>
    <path d="M20.0846 25.9938L20.0861 26.0217L20.0872 26.0451C20.128 26.0223 20.168 26.0001 20.2073 25.9783L20.2082 25.9778C20.3086 25.9222 20.4045 25.869 20.4985 25.8133C20.7187 25.684 20.9385 25.5542 21.1584 25.4244C21.4462 25.2546 21.7339 25.0848 22.0223 24.9161C22.2958 24.7557 22.5701 24.5969 22.8444 24.438L22.845 24.4376C23.0882 24.2968 23.3314 24.156 23.5739 24.0141C24.1484 23.6758 24.7233 23.3375 25.2984 22.9992C25.3975 22.9409 25.4966 22.8824 25.5956 22.824L25.5962 22.8236C25.9193 22.6328 26.2424 22.4421 26.5694 22.258C26.6498 22.2129 26.6646 22.1665 26.6646 22.0869V14.6676C26.6646 14.6405 26.6629 14.6135 26.661 14.5817C26.6599 14.5642 26.6587 14.5453 26.6577 14.5241C26.5876 14.5637 26.5189 14.6022 26.4511 14.6402L26.4503 14.6406C26.3019 14.7237 26.1585 14.8041 26.0168 14.8872C25.7991 15.0152 25.5817 15.1439 25.3643 15.2725L25.3629 15.2733C25.0253 15.4731 24.6876 15.6728 24.3487 15.8704C24.2707 15.9157 24.2404 15.9648 24.2404 16.056C24.2435 16.3742 24.243 16.6925 24.2425 17.0107C24.2424 17.1252 24.2422 17.2398 24.2422 17.3543C24.2401 18.4496 24.2401 19.5448 24.2422 20.6401C24.2425 20.722 24.2259 20.7714 24.1468 20.8167C23.815 21.0074 23.4847 21.2015 23.1544 21.3956C22.9582 21.511 22.7614 21.6267 22.5649 21.7412C21.7727 22.2023 20.98 22.6621 20.1866 23.1207C20.1138 23.1626 20.0787 23.2088 20.0787 23.3024C20.0825 23.9821 20.0821 24.6616 20.0818 25.3412L20.0816 25.9125C20.0816 25.9384 20.083 25.9638 20.0846 25.9938Z"
          fill="currentColor"></path>
    <path d="M11.8942 26.0399L11.3047 25.695C10.8964 25.4561 10.4883 25.217 10.0804 24.9777C9.67241 24.7384 9.26376 24.4997 8.85441 24.2614L7.62873 23.5452C7.17597 23.2799 6.72338 23.0146 6.27097 22.7494C6.18847 22.7009 6.10625 22.652 6.02406 22.603L6.02319 22.6025C5.8244 22.4842 5.62571 22.3659 5.42336 22.2549C5.34664 22.2127 5.33609 22.1668 5.33635 22.092C5.33801 21.5822 5.33788 21.0722 5.33775 20.5623L5.33767 14.5233C5.38916 14.5525 5.43866 14.5802 5.48676 14.6072L5.48744 14.6075C5.58047 14.6597 5.66826 14.7089 5.75502 14.7597C6.26684 15.0603 6.77822 15.3619 7.28916 15.6643C7.4078 15.734 7.52644 15.802 7.64745 15.8696C7.72865 15.9155 7.76398 15.9739 7.76346 16.0776C7.75951 17.0482 7.75982 18.0185 7.76013 18.9891L7.76029 19.7732C7.76029 19.8718 7.76047 19.9704 7.76064 20.069C7.76099 20.2661 7.76135 20.4634 7.76029 20.6605C7.76029 20.7285 7.77453 20.7693 7.83938 20.8064C8.07681 20.943 8.31292 21.0819 8.54906 21.2208C8.68003 21.2979 8.811 21.3749 8.9422 21.4516C9.34945 21.6907 9.75783 21.9289 10.1674 22.1663C10.5317 22.3785 10.8959 22.5907 11.2599 22.8029C11.3253 22.8409 11.3911 22.8781 11.457 22.9153C11.5784 22.984 11.6999 23.0527 11.8186 23.1258C11.8387 23.1399 11.8557 23.1582 11.8682 23.1795C11.8807 23.2008 11.8885 23.2245 11.8911 23.2491C11.8946 24.0176 11.8944 24.7849 11.8943 25.5665L11.8942 26.0399Z"
          fill="currentColor"></path>
    <path d="M9.71838 10.0041C9.87322 9.91222 10.0298 9.81933 10.1896 9.72508C10.0834 9.66217 9.97877 9.60003 9.87511 9.53848C9.64701 9.40304 9.42367 9.27042 9.19908 9.13855C9.0566 9.05452 8.9139 8.97085 8.7712 8.88718L8.77059 8.88683C8.47201 8.71176 8.17343 8.5367 7.87691 8.35836C7.79597 8.30982 7.73191 8.30106 7.65097 8.34961C7.56181 8.40296 7.47144 8.45408 7.38098 8.50526C7.29196 8.55562 7.20285 8.60603 7.11472 8.65866L6.75323 8.87272C6.31105 9.13468 5.86902 9.39655 5.42503 9.65505C5.35174 9.69802 5.33565 9.74816 5.33565 9.82456C5.33724 10.7029 5.33855 11.5815 5.33381 12.4598C5.33138 12.4937 5.33917 12.5275 5.35615 12.5569C5.37313 12.5862 5.39851 12.6097 5.42898 12.6243C5.51109 12.6722 5.59382 12.7191 5.67654 12.766C5.77334 12.8209 5.87023 12.8758 5.96603 12.9323C6.1751 13.0553 6.38383 13.1792 6.59253 13.3031C6.83511 13.4471 7.07789 13.5911 7.32089 13.7337C7.41866 13.7913 7.51797 13.8463 7.62218 13.9041C7.66691 13.9289 7.71253 13.9542 7.75933 13.9804V13.8178C7.75933 13.6082 7.75962 13.3986 7.75991 13.1891C7.76072 12.5996 7.76154 12.0102 7.7559 11.4207C7.75405 11.2433 7.77541 11.1231 7.95785 11.0284C8.25438 10.8743 8.54182 10.7026 8.82923 10.5308C8.93328 10.4686 9.0374 10.4064 9.14187 10.345C9.3333 10.2326 9.5247 10.119 9.71838 10.0041Z"
          fill="currentColor"></path>
    <path d="M24.2442 13.9812L24.244 13.3413C24.2437 12.6482 24.2434 11.9658 24.2466 11.2834C24.2466 11.1815 24.2084 11.1324 24.1256 11.0839C23.7813 10.8833 23.4384 10.6804 23.0955 10.4774C22.8797 10.3496 22.6638 10.2218 22.4475 10.0946C22.3086 10.0127 22.1684 9.93322 22.0225 9.85048L22.0218 9.85011C21.9506 9.8097 21.8779 9.76851 21.8034 9.7259L22.0573 9.57675C22.245 9.46653 22.4269 9.3597 22.6086 9.25185C22.7286 9.18102 22.8485 9.11005 22.9684 9.03907C23.3591 8.80778 23.75 8.57643 24.1438 8.3499C24.1751 8.33528 24.2092 8.3277 24.2437 8.3277C24.2782 8.3277 24.3123 8.33528 24.3436 8.3499C24.8496 8.6407 25.352 8.93761 25.8544 9.23456L26.0765 9.3658C26.2516 9.46902 26.4269 9.57239 26.5973 9.68293C26.6162 9.69722 26.6319 9.71535 26.6434 9.73615C26.6548 9.75694 26.6619 9.77993 26.664 9.80363C26.6677 10.6953 26.6677 11.5868 26.664 12.4782C26.6619 12.5015 26.6549 12.5242 26.6433 12.5446C26.6318 12.5649 26.616 12.5826 26.597 12.5962C25.8567 13.0336 25.1149 13.4686 24.3716 13.9014C24.3487 13.9149 24.3264 13.9291 24.2991 13.9465C24.283 13.9568 24.265 13.9682 24.2442 13.9812Z"
          fill="currentColor"></path>
    <path d="M22.5586 16.9258C22.428 17.002 22.3 17.0767 22.1737 17.1502C21.9065 17.3059 21.6473 17.4569 21.3886 17.6089C21.2643 17.6819 21.1404 17.7555 21.0164 17.8292C20.7558 17.984 20.495 18.139 20.2309 18.288C20.1437 18.3374 20.107 18.3809 20.107 18.4851C20.1107 19.1611 20.1104 19.8371 20.1101 20.5131L20.1099 21.0811C20.1099 21.1098 20.1116 21.1383 20.1136 21.1718C20.1146 21.1876 20.1156 21.2047 20.1165 21.2233C20.195 21.1779 20.2722 21.1335 20.3484 21.0895L20.3494 21.089C20.5206 20.9903 20.6873 20.8943 20.8529 20.7968C21.0014 20.709 21.1496 20.6212 21.2977 20.5334L21.2984 20.533L21.2997 20.5323C21.6915 20.3001 22.0824 20.0685 22.4761 19.8396C22.5375 19.8041 22.5602 19.7731 22.5602 19.7022C22.5578 19.3379 22.5581 18.9736 22.5584 18.6093L22.5586 16.9258Z"
          fill="currentColor"></path>
    <path d="M18.4366 9.72498C18.0327 9.96373 17.652 10.1882 17.2702 10.4121L17.1254 10.497C16.7767 10.7015 16.4279 10.9059 16.0759 11.1047C16.0489 11.1172 16.0196 11.1237 15.9899 11.1237C15.9601 11.1237 15.9308 11.1172 15.9038 11.1047C15.3238 10.7675 14.7465 10.4263 14.169 10.085L13.9019 9.92713C13.8338 9.88667 13.766 9.84568 13.6933 9.80174C13.6521 9.77681 13.6093 9.75093 13.5639 9.72366C13.614 9.69364 13.6627 9.66437 13.7103 9.63567C13.8071 9.57741 13.8999 9.52153 13.9932 9.4666L15.8489 8.37127C15.9481 8.3129 16.028 8.30442 16.1421 8.37471C16.5095 8.60041 16.8828 8.81616 17.2558 9.03173C17.3853 9.10653 17.5147 9.18133 17.6438 9.2565C17.7964 9.34637 17.9486 9.43643 18.1041 9.52839C18.2128 9.5927 18.3235 9.65821 18.4366 9.72498Z"
          fill="currentColor"></path>
    <path d="M9.64407 17.0454C9.57943 17.0081 9.51327 16.9699 9.44494 16.9303V19.4642C9.44494 19.7979 9.44494 19.7982 9.72308 19.9653C9.72657 19.9674 9.73076 19.9684 9.735 19.9693C9.73939 19.9703 9.74384 19.9713 9.7476 19.9736C10.325 20.314 10.9029 20.6542 11.4813 20.9941C11.5652 21.0438 11.6511 21.0914 11.7408 21.1411C11.7822 21.164 11.8244 21.1874 11.8676 21.2116C11.8676 21.0704 11.8676 20.9296 11.8676 20.7893C11.8677 19.9967 11.8678 19.2172 11.8647 18.4379C11.8637 18.4129 11.8576 18.3884 11.8467 18.3659C11.8358 18.3434 11.8204 18.3235 11.8014 18.3073C11.7226 18.2544 11.6396 18.208 11.5567 18.1616C11.5157 18.1388 11.4748 18.1159 11.4344 18.0922C10.9746 17.8225 10.5147 17.5532 10.0547 17.2842C9.92053 17.2051 9.78595 17.1274 9.64407 17.0454Z"
          fill="currentColor"></path>
</svg>
