<svg viewBox="0 0 32 32" fill="none" xmlns="http://www.w3.org/2000/svg">
    <title>Polygon</title>
    <path fill-rule="evenodd" clip-rule="evenodd"
          d="M9.35243 4.83479C9.75516 4.61106 10.2448 4.61106 10.6475 4.83479L16.6475 8.16812C17.0708 8.40326 17.3333 8.84946 17.3333 9.33366V11.5015L14.6666 13.0003V10.1182L9.99996 7.52559L5.33329 10.1182V15.2158L9.99996 17.8084L21.3524 11.5015C21.7552 11.2777 22.2448 11.2777 22.6475 11.5015L28.6475 14.8348C29.0708 15.0699 29.3333 15.5161 29.3333 16.0003V22.667C29.3333 23.1512 29.0708 23.5974 28.6475 23.8325L22.6475 27.1659C22.2448 27.3896 21.7552 27.3896 21.3524 27.1659L15.3524 23.8325C14.9292 23.5974 14.6666 23.1512 14.6666 22.667V20.4992L17.3333 19.0003V21.8825L22 24.4751L26.6666 21.8825V16.7849L22 14.1923L10.6475 20.4992C10.2448 20.7229 9.75516 20.7229 9.35243 20.4992L3.35243 17.1659C2.92916 16.9307 2.66663 16.4845 2.66663 16.0003V9.33366C2.66663 8.84946 2.92916 8.40326 3.35243 8.16812L9.35243 4.83479Z"
          fill="currentColor"></path>
</svg>
