<svg viewBox="0 0 32 32" fill="currentColor" xmlns="http://www.w3.org/2000/svg">
    <title>Arbitrum</title>
    <path d="M17.1521 3.63605C16.4394 3.2333 15.5613 3.2333 14.8486 3.63605L5.63662 8.8422C4.92424 9.24482 4.48535 9.98875 4.48535 10.7939V21.2072C4.48535 21.2953 4.49061 21.3827 4.50092 21.4691L4.48523 21.4925C4.48523 22.1202 4.82314 22.6993 5.36958 23.0082L7.01324 23.9371L15.4916 10.6293H13.7127C12.4817 10.6293 11.3337 11.2371 10.6603 12.2456L6.15498 18.9921V10.7905C6.15498 10.5222 6.30128 10.2742 6.53866 10.14L15.6547 4.98659C15.8923 4.85227 16.1851 4.85227 16.4227 4.98659L25.5387 10.14C25.7761 10.2742 25.9223 10.5222 25.9223 10.7905V19.5116L20.8173 11.7842L18.9173 14.9018L23.874 22.6895L23.8745 22.6894L22.9396 23.2179L22.9402 23.2174L18.284 16.0193L16.0962 19.6065L19.6638 25.0696L19.6644 25.0695L16.4227 26.9021C16.1851 27.0364 15.8923 27.0364 15.6547 26.9021L11.8026 24.7244L20.328 10.6292H16.5953L7.98133 24.484L14.8486 28.365C15.5613 28.7678 16.4394 28.7678 17.1521 28.365L26.364 23.1588C27.0764 22.7562 27.5153 22.0123 27.5153 21.2072V10.7939C27.5153 9.98875 27.0764 9.24482 26.364 8.8422L17.1521 3.63605Z"
          fill="currentColor"></path>
</svg>
