<svg viewBox="0 0 32 32" fill="none" xmlns="http://www.w3.org/2000/svg">
    <title>Avalanche</title>
    <path d="M5.603 25.9996H9.76785C10.7484 25.9996 11.2387 25.9996 11.6763 25.8782C12.1561 25.7359 12.5936 25.4828 12.9574 25.1348C13.2916 24.8164 13.5326 24.3945 14.0084 23.5619L14.0223 23.5375L19.424 13.9889C19.9037 13.1506 20.141 12.7289 20.2465 12.286C20.3624 11.8063 20.3624 11.3002 20.2465 10.8204C20.1418 10.3809 19.9021 9.96209 19.4294 9.13622L17.3047 5.42718C16.8671 4.65749 16.6457 4.27262 16.3663 4.13029C16.0658 3.9774 15.7073 3.9774 15.4068 4.13029C15.1274 4.27262 14.9059 4.65749 14.4684 5.42718L4.18483 23.5534C3.75254 24.3125 3.53638 24.6921 3.5522 25.0031C3.57328 25.3404 3.74728 25.6465 4.03194 25.8308C4.29556 25.9996 4.72784 25.9996 5.603 25.9996Z"
          fill="currentColor"></path>
    <path d="M20.2833 26.0001H26.2512C27.1315 26.0001 27.5745 26.0001 27.8382 25.8261C28.1226 25.6418 28.3021 25.3306 28.3179 24.9932C28.3332 24.693 28.1223 24.3289 27.7096 23.6165C27.6947 23.5908 27.6796 23.5647 27.6642 23.5382L24.6749 18.4243L24.6396 18.3646C24.2203 17.6557 24.0085 17.2976 23.7365 17.159C23.4359 17.0062 23.0828 17.0062 22.7822 17.159C22.5082 17.3014 22.2867 17.6757 21.849 18.4296L18.8705 23.5434L18.8602 23.5611C18.4242 24.3137 18.2063 24.6898 18.222 24.9985C18.2431 25.3357 18.4171 25.6469 18.7018 25.8316C18.9601 26.0001 19.4029 26.0001 20.2833 26.0001Z"
          fill="currentColor"></path>
</svg>
