<svg viewBox="0 0 32 32" fill="none" xmlns="http://www.w3.org/2000/svg">
    <path fill-rule="evenodd" clip-rule="evenodd"
          d="M16.0112 4.00146C19.429 4.00146 22.5161 5.43354 24.6936 7.72126C24.9968 8.02344 25.2816 8.3634 25.5205 8.69514L16.002 18.2188L6.48346 8.70335C6.74992 8.3634 7.03476 8.03329 7.32878 7.72126C9.51544 5.43354 12.5933 4.00146 16.0112 4.00146ZM23.389 8.62124C21.432 6.6472 18.8226 5.56329 16.0112 5.56329C13.1997 5.56329 10.5996 6.6472 8.63337 8.62124L16.0112 15.9968L23.389 8.62124Z"
          fill="currentColor"></path>
    <path d="M26.2823 9.78726L24.3436 11.7252C24.9868 12.497 25.3727 13.4709 25.3727 14.5532C25.3727 16.9871 23.3973 18.9628 20.9625 18.9628C19.8875 18.9628 18.9045 18.5768 18.1327 17.933L16.0104 20.0549L13.8879 17.933C13.1162 18.5768 12.1423 18.9628 11.0582 18.9628C8.62337 18.9628 6.648 16.9871 6.648 14.5532C6.648 13.4791 7.03388 12.497 7.67705 11.7252L5.73842 9.78726C4.63588 11.6053 4.00195 13.7271 4.00195 16.005C4.00195 22.6366 9.37677 28.0003 16.0012 28.0003C22.6255 28.0003 28.0003 22.6267 28.0003 16.005C28.0187 13.7189 27.3848 11.5971 26.2823 9.78726Z"
          fill="currentColor"></path>
    <path d="M23.4237 12.6251C23.8371 13.1572 24.076 13.8191 24.076 14.5351C24.076 16.2628 22.6794 17.6588 20.9614 17.6489C20.2356 17.6489 19.574 17.4108 19.0503 16.9969L23.4237 12.6251Z"
          fill="currentColor"></path>
    <path d="M12.9774 17.0068C12.4445 17.4206 11.783 17.6588 11.0664 17.6588C9.3391 17.6588 7.94253 16.2628 7.95172 14.545C7.95172 13.8191 8.19062 13.1589 8.60407 12.635L12.9774 17.0068Z"
          fill="currentColor"></path>
</svg>
