<svg viewBox="0 0 32 32" fill="none" xmlns="http://www.w3.org/2000/svg">
    <title>Moonbeam</title>
    <path fill-rule="evenodd" clip-rule="evenodd"
          d="M9.60677 12.7927C9.60677 7.93933 13.5461 4 18.3995 4C23.2529 4 27.1922 7.93933 27.2003 12.7927V12.8089V12.8251C27.1841 13.0516 26.99 13.2295 26.7635 13.2295H10.0436C9.80899 13.2295 9.62295 13.0516 9.60677 12.8251V12.8089V12.7927ZM3.78324 22.6123C3.78324 22.9072 3.54421 23.1462 3.24936 23.1462C2.95452 23.1462 2.71549 22.9072 2.71549 22.6123C2.71549 22.3175 2.95452 22.0785 3.24936 22.0785C3.54421 22.0785 3.78324 22.3175 3.78324 22.6123ZM26.1815 19.6517H8.23207C7.83571 19.6517 7.57686 20.0804 7.77099 20.4282C7.77099 20.4323 7.77301 20.4343 7.77504 20.4363C7.77706 20.4383 7.77908 20.4404 7.77908 20.4444C7.86806 20.6143 8.04602 20.7194 8.24015 20.7194H26.1653C26.3595 20.7194 26.5374 20.6143 26.6264 20.4444C26.6264 20.4404 26.6284 20.4383 26.6304 20.4363C26.6325 20.4343 26.6345 20.4323 26.6345 20.4282C26.8286 20.0804 26.5778 19.6517 26.1815 19.6517ZM8.23163 14.7988H28.5592C28.8666 14.7988 29.1012 15.0577 29.085 15.357V15.3731C29.0688 15.6482 28.8423 15.8666 28.5592 15.8666H8.23163C7.9566 15.8666 7.72202 15.6482 7.70584 15.3731V15.357C7.68966 15.0577 7.93233 14.7988 8.23163 14.7988ZM20.906 26.9323H11.7493C11.1911 26.9323 11.0213 27.6765 11.5147 27.9272C11.5187 27.9313 11.5248 27.9333 11.5309 27.9353C11.5369 27.9373 11.543 27.9394 11.5471 27.9434C11.6199 27.9839 11.7007 28 11.7816 28H20.8736C20.9545 28 21.0354 27.9839 21.1082 27.9434C21.1123 27.9394 21.1183 27.9373 21.1244 27.9353C21.1305 27.9333 21.1365 27.9313 21.1406 27.9272C21.6421 27.6765 21.4641 26.9323 20.906 26.9323ZM17.3482 24.5055H26.505C27.0631 24.5055 27.2411 25.2497 26.7395 25.5005C26.7355 25.5045 26.7294 25.5065 26.7234 25.5086C26.7173 25.5106 26.7112 25.5126 26.7072 25.5167C26.6344 25.5571 26.5535 25.5733 26.4726 25.5733H17.3806C17.2997 25.5733 17.2188 25.5571 17.146 25.5167C17.142 25.5126 17.1359 25.5106 17.1298 25.5086C17.1238 25.5065 17.1177 25.5045 17.1137 25.5005C16.6202 25.2497 16.7901 24.5055 17.3482 24.5055ZM14.0156 22.9768L13.9994 22.9606C13.6839 22.6209 13.9266 22.0789 14.3876 22.0789H29.2552C29.7162 22.0789 29.9589 22.629 29.6434 22.9606L29.6273 22.9768C29.5302 23.082 29.3846 23.1467 29.239 23.1467H14.4038C14.2501 23.1467 14.1126 23.082 14.0156 22.9768ZM12.2592 22.0789H5.1571C4.59897 22.0789 4.4291 22.8231 4.93061 23.0739C4.93466 23.0779 4.94072 23.08 4.94679 23.082C4.95286 23.084 4.95892 23.086 4.96297 23.0901C5.03577 23.1305 5.11666 23.1467 5.19755 23.1467H12.2269C12.3078 23.1467 12.3886 23.1305 12.4614 23.0901C12.4655 23.086 12.4716 23.084 12.4776 23.082C12.4837 23.08 12.4898 23.0779 12.4938 23.0739C12.9872 22.8231 12.8174 22.0789 12.2592 22.0789ZM6.32358 15.8666C6.61843 15.8666 6.85746 15.6276 6.85746 15.3327C6.85746 15.0379 6.61843 14.7988 6.32358 14.7988C6.02873 14.7988 5.78971 15.0379 5.78971 15.3327C5.78971 15.6276 6.02873 15.8666 6.32358 15.8666ZM19.4858 17.8887C19.4777 17.8968 19.4777 17.8968 19.4777 17.9049C19.413 18.1314 19.2027 18.2932 18.9681 18.2932H4.10868C3.86601 18.2932 3.66379 18.1314 3.59907 17.9049L3.59907 17.9049C3.59098 17.8968 3.59098 17.8968 3.59098 17.8887C3.502 17.5571 3.75276 17.2254 4.10059 17.2254H18.9762C19.324 17.2254 19.5748 17.5571 19.4858 17.8887ZM2.19012 18.2932C2.48497 18.2932 2.72399 18.0541 2.72399 17.7593C2.72399 17.4644 2.48497 17.2254 2.19012 17.2254C1.89527 17.2254 1.65625 17.4644 1.65625 17.7593C1.65625 18.0541 1.89527 18.2932 2.19012 18.2932ZM6.85746 20.1856C6.85746 20.4804 6.61843 20.7194 6.32358 20.7194C6.02873 20.7194 5.78971 20.4804 5.78971 20.1856C5.78971 19.8907 6.02873 19.6517 6.32358 19.6517C6.61843 19.6517 6.85746 19.8907 6.85746 20.1856ZM15.433 25.5733C15.7278 25.5733 15.9668 25.3343 15.9668 25.0394C15.9668 24.7446 15.7278 24.5055 15.433 24.5055C15.1381 24.5055 14.8991 24.7446 14.8991 25.0394C14.8991 25.3343 15.1381 25.5733 15.433 25.5733ZM10.3666 27.4662C10.3666 27.761 10.1275 28 9.8327 28C9.53785 28 9.29883 27.761 9.29883 27.4662C9.29883 27.1713 9.53785 26.9323 9.8327 26.9323C10.1275 26.9323 10.3666 27.1713 10.3666 27.4662Z"
          fill="currentColor"></path>
</svg>
