<svg xmlns="http://www.w3.org/2000/svg" fill="none" viewBox="0 0 32 32">
    <path fill="currentColor" fill-rule="evenodd"
          d="M12.182 4.72381C13.3356 4.24595 14.572 4 15.8207 4l.0034.0041c1.4107.00141 2.8033.31647 4.0772.92237 1.2739.6059 2.3971 1.48747 3.2883 2.58091.8913 1.09343 1.5282 2.37135 1.8647 3.74122.3366 1.3699.3643 2.7975.0812 4.1794l-.5732.3925c-1.9445 1.3336-5.0977 1.3336-7.0442 0l-.6985-.4802-1.2889-.8827c-2.1589-1.481-5.66204-1.481-7.82149 0l-1.2283.8413c-.1119-.5902-.16832-1.1896-.16855-1.7903-.00003-1.2487.24588-2.4851.72371-3.63876.47782-1.15364 1.17819-2.20186 2.06113-3.08482.88293-.88296 1.9311-1.58336 3.0848-2.06121Zm5.1475 13.40059c1.0314.7069 2.4013 1.0956 3.8338 1.0956 1.4327 0 2.7969-.3866 3.833-1.0959l.7541-.5159c.0616-.0409.1145-.0936.1556-.1551.0411-.0614.0695-.1305.0837-.203.0141-.0726.0137-.1473-.0012-.2197-.015-.0724-.0442-.1411-.086-.2021-.0418-.061-.0953-.1131-.1574-.1533-.0621-.0401-.1315-.0675-.2043-.0806-.0728-.013-.1474-.0115-.2196.0046-.0722.016-.1404.0463-.2008.089l-.7541.516c-.9643.5901-2.0729.9024-3.2034.9024-1.1306 0-2.2391-.3123-3.2034-.9024l-1.9859-1.361c-1.1353-.7789-2.6337-1.207-4.2221-1.207-1.5885 0-3.0872.4281-4.22249 1.207l-1.28334.8791c-.06096.0412-.11318.094-.15366.1554-.04047.0615-.06839.1303-.08216.2025-.01376.0723-.0131.1466.00195.2186.01506.072.0442.1403.08576.201.04156.0607.09472.1125.15641.1526.06169.0401.13069.0675.20304.0808.07235.0133.14661.0122.21851-.0034.0719-.0155.14003-.0451.20044-.087l1.284-.8792c.95073-.6562 2.22784-1.0134 3.59204-1.0134 1.3642 0 2.6409.3598 3.5916 1.0134l1.9859 1.361Zm-5.6193 5.0891v-5.3724c-.0042-.113.0006-.2262.0143-.3385.0167-.1478.0873-.2843.1983-.3833.111-.0991.2545-.1538.4033-.1537.1442.0039.2818.0609.3866.16.1047.0991.1692.2333.1811.377.0228.1866.0294.3747.0196.5623v10.7114c-.0321.3969-.2809.659-.6159.6519-.335-.0072-.5768-.2793-.5783-.6822v-3.5702l-.009-1.9623ZM10.58 23.179v-2.6697l.0001-.5513c.0003-.7062.0006-1.4124-.0033-2.1187-.0017-.4672-.2132-.7499-.5677-.768-.35443-.0182-.62671.2972-.62671.7648v5.3372c.00159.4356.26328.7433.60859.7541.34532.0109.58902-.2916.58902-.7484Zm3.469-2.6731v-1.8766c0-.4351.2309-.7161.5748-.7161.3438 0 .6086.29.6125.6998.013 1.2775.013 2.5543 0 3.8305 0 .435-.2562.6963-.6086.693-.3523-.0033-.578-.2708-.5821-.7163V20.504l.0034.0019ZM7.0541 19.019v1.877l-.00331-.0017v1.9156c.00384.4454.23166.7128.58213.7163.35047.0034.60859-.2579.60859-.6929.01174-1.2762.01174-2.553 0-3.8305-.0041-.4098-.26896-.6998-.61269-.6998-.34372 0-.57472.2811-.57472.716Zm9.9099.2799h.0017c.1563 0 .3062.0622.4166.1727.1105.1105.1726.2604.1726.4167v1.0206c-.0001.1562-.0621.306-.1726.4165-.1105.1105-.2603.1726-.4166.1726h-.0017c-.1563 0-.3061-.0621-.4167-.1725-.1105-.1105-.1726-.2604-.1727-.4166v-1.0206c0-.1563.0621-.3062.1727-.4168.1105-.1105.2604-.1726.4167-.1726Zm2.3382.8936h-.0018c-.1562.0001-.3061.0622-.4165.1727-.1105.1106-.1725.2604-.1725.4167v5.7243c0 .0774.0152.154.0448.2255.0296.0714.073.1364.1277.1911.0547.0547.1196.0981.1911.1277s.1481.0448.2254.0448h.0018c.0773 0 .1539-.0152.2254-.0448.0715-.0296.1364-.073.1911-.1277.0547-.0547.0981-.1196.1278-.1911.0296-.0715.0448-.1481.0448-.2255v-5.7243c0-.1563-.0621-.3061-.1725-.4167-.1105-.1105-.2604-.1726-.4166-.1727Zm2.3168.2219h.0017c.1563 0 .3061.062.4167.1725.1105.1105.1726.2603.1727.4166v4.8652c0 .0773-.0153.1539-.0449.2254-.0297.0715-.0731.1364-.1278.1911-.0548.0547-.1197.098-.1912.1276-.0715.0296-.1481.0448-.2255.0447h-.0017c-.0774.0001-.154-.0151-.2254-.0447-.0715-.0296-.1364-.073-.1911-.1277-.0547-.0546-.0981-.1196-.1277-.191-.0296-.0715-.0449-.1481-.0448-.2254v-4.8651c-.0001-.0773.0151-.154.0447-.2255.0296-.0714.073-.1364.1277-.1911.0547-.0548.1196-.0982.1911-.1278s.1481-.0448.2255-.0448Zm2.3516-.5548h-.0017c-.0774 0-.154.0152-.2255.0448-.0715.0296-.1364.073-.1911.1278-.0547.0547-.0981.1196-.1277.1911s-.0448.1482-.0447.2255v2.0983c-.0001.0774.0152.154.0448.2255.0296.0715.0729.1364.1276.1911.0547.0547.1197.0981.1911.1277.0715.0296.1481.0449.2255.0449h.0017c.1562 0 .3061-.0621.4165-.1726.1105-.1105.1726-.2603.1726-.4166v-2.0984c0-.1563-.062-.3061-.1725-.4166-.1105-.1105-.2604-.1725-.4166-.1725Z"
          clip-rule="evenodd"/>
</svg>
