<svg viewBox="0 0 32 32" fill="none" xmlns="http://www.w3.org/2000/svg">
    <title>Fantom</title>
    <path d="M14.9011 3.57568C15.5186 3.25212 16.4581 3.25212 17.0756 3.57568L23.3764 6.87739C23.7483 7.07225 23.9525 7.36263 23.9891 7.6624H23.9951V24.2584C23.9869 24.5854 23.7807 24.9102 23.3764 25.1221L17.0756 28.4238C16.4581 28.7473 15.5186 28.7473 14.9011 28.4238L8.60034 25.1221C8.19767 24.9111 8.00442 24.584 7.99485 24.2584C7.99387 24.225 7.99378 24.1974 7.99482 24.1747L7.99485 7.77414C7.99391 7.75107 7.9939 7.7281 7.99483 7.70522L7.99485 7.6624H7.99766C8.02565 7.35932 8.22062 7.07635 8.60034 6.87739L14.9011 3.57568ZM22.9928 16.8892L17.0737 20.0011C16.4571 20.3253 15.5189 20.3253 14.9023 20.0011L8.99638 16.8962V24.2071L14.9023 27.2956C15.2513 27.4812 15.6142 27.662 15.9676 27.6699L15.988 27.6702C16.3407 27.6713 16.6831 27.4931 17.0303 27.3243L22.9928 24.1805V16.8892ZM7.00695 23.8986C7.00695 24.5348 7.08068 24.953 7.22707 25.2476C7.34841 25.4918 7.53046 25.6783 7.86289 25.9054L7.88186 25.9183C7.95482 25.9676 8.03518 26.0193 8.13301 26.08L8.24837 26.1509L8.60262 26.3653L8.09453 27.2076L7.69804 26.9675L7.63139 26.9265C7.51675 26.8555 7.42173 26.7945 7.3331 26.7346C6.38568 26.094 6.03235 25.3957 6.02537 23.9429L6.02527 23.8986H7.00695ZM15.5113 12.4772C15.4655 12.4929 15.4225 12.5111 15.3833 12.5317L9.09219 15.844C9.08558 15.8475 9.07929 15.8509 9.0733 15.8543L9.06797 15.8574L9.07785 15.863L9.09219 15.8708L15.3833 19.1831C15.4225 19.2037 15.4655 19.2219 15.5113 19.2376V12.4772ZM16.5136 12.4772V19.2376C16.5595 19.2219 16.6025 19.2037 16.6417 19.1831L22.9328 15.8708C22.9394 15.8673 22.9457 15.8639 22.9517 15.8605L22.957 15.8574L22.9471 15.8518L22.9328 15.844L16.6417 12.5317C16.6025 12.5111 16.5595 12.4929 16.5136 12.4772ZM22.9928 8.84801L17.337 11.8012L22.9928 14.7544V8.84801ZM8.99638 8.84801V14.7544L14.6522 11.8012L8.99638 8.84801ZM16.6362 4.45832C16.3087 4.28625 15.7163 4.28625 15.3888 4.45832L9.09221 7.7672C9.0856 7.77069 9.0793 7.77411 9.0733 7.77753L9.06797 7.78059L9.07786 7.78621L9.09221 7.79397L15.3888 11.1028C15.7163 11.2749 16.3087 11.2749 16.6362 11.1028L22.9327 7.79397C22.9394 7.79049 22.9457 7.78707 22.9516 7.78368L22.957 7.78059L22.9471 7.77496L22.9327 7.7672L16.6362 4.45832ZM23.9304 4.79182L24.3269 5.03196L24.3936 5.07299C24.5082 5.14396 24.6032 5.20493 24.6919 5.26485C25.6393 5.9054 25.9926 6.60377 25.9996 8.05656L25.9997 8.10082H25.018C25.018 7.46458 24.9443 7.04645 24.7979 6.75184C24.6766 6.50769 24.4945 6.32109 24.1621 6.09404L24.1431 6.08114C24.0702 6.03182 23.9898 5.98014 23.892 5.91942L23.7766 5.84856L23.4224 5.63418L23.9304 4.79182Z"
          fill="currentColor"></path>
</svg>
